<mxfile host="app.diagrams.net" modified="2021-05-17T08:58:39.518Z" agent="5.0 (Macintosh; Intel Mac OS X 10_15_7) AppleWebKit/537.36 (KHTML, like Gecko) Chrome/90.0.4430.212 Safari/537.36" etag="NCgFuBzofgwtTSEc-H1Z" version="14.6.13" type="github" pages="3">
  <diagram id="rZHABt39I6PzGEgec4hI" name="数据结构">
    <mxGraphModel dx="946" dy="611" grid="1" gridSize="10" guides="1" tooltips="1" connect="1" arrows="1" fold="1" page="1" pageScale="1" pageWidth="3300" pageHeight="4681" math="0" shadow="0">
      <root>
        <mxCell id="lnXDwb00k-55SOS0SMKl-0" />
        <mxCell id="lnXDwb00k-55SOS0SMKl-1" parent="lnXDwb00k-55SOS0SMKl-0" />
        <mxCell id="lnXDwb00k-55SOS0SMKl-29" value="" style="rounded=0;whiteSpace=wrap;html=1;fillColor=#f8cecc;strokeColor=#b85450;" vertex="1" parent="lnXDwb00k-55SOS0SMKl-1">
          <mxGeometry x="100" y="60" width="940" height="380" as="geometry" />
        </mxCell>
        <mxCell id="lnXDwb00k-55SOS0SMKl-2" value="0" style="rounded=0;whiteSpace=wrap;html=1;" vertex="1" parent="lnXDwb00k-55SOS0SMKl-1">
          <mxGeometry x="120" y="200" width="40" height="40" as="geometry" />
        </mxCell>
        <mxCell id="lnXDwb00k-55SOS0SMKl-3" value="1" style="rounded=0;whiteSpace=wrap;html=1;" vertex="1" parent="lnXDwb00k-55SOS0SMKl-1">
          <mxGeometry x="160" y="200" width="40" height="40" as="geometry" />
        </mxCell>
        <mxCell id="lnXDwb00k-55SOS0SMKl-4" value="3" style="rounded=0;whiteSpace=wrap;html=1;" vertex="1" parent="lnXDwb00k-55SOS0SMKl-1">
          <mxGeometry x="240" y="200" width="40" height="40" as="geometry" />
        </mxCell>
        <mxCell id="lnXDwb00k-55SOS0SMKl-5" value="4" style="rounded=0;whiteSpace=wrap;html=1;" vertex="1" parent="lnXDwb00k-55SOS0SMKl-1">
          <mxGeometry x="280" y="200" width="40" height="40" as="geometry" />
        </mxCell>
        <mxCell id="lnXDwb00k-55SOS0SMKl-6" value="2" style="rounded=0;whiteSpace=wrap;html=1;" vertex="1" parent="lnXDwb00k-55SOS0SMKl-1">
          <mxGeometry x="200" y="200" width="40" height="40" as="geometry" />
        </mxCell>
        <mxCell id="lnXDwb00k-55SOS0SMKl-12" value="0" style="rounded=0;whiteSpace=wrap;html=1;" vertex="1" parent="lnXDwb00k-55SOS0SMKl-1">
          <mxGeometry x="440" y="200" width="40" height="40" as="geometry" />
        </mxCell>
        <mxCell id="lnXDwb00k-55SOS0SMKl-24" style="edgeStyle=none;rounded=0;orthogonalLoop=1;jettySize=auto;html=1;exitX=1;exitY=0.5;exitDx=0;exitDy=0;entryX=0;entryY=0.5;entryDx=0;entryDy=0;" edge="1" parent="lnXDwb00k-55SOS0SMKl-1" source="lnXDwb00k-55SOS0SMKl-13" target="lnXDwb00k-55SOS0SMKl-14">
          <mxGeometry relative="1" as="geometry" />
        </mxCell>
        <mxCell id="lnXDwb00k-55SOS0SMKl-13" value="next" style="rounded=0;whiteSpace=wrap;html=1;" vertex="1" parent="lnXDwb00k-55SOS0SMKl-1">
          <mxGeometry x="480" y="200" width="40" height="40" as="geometry" />
        </mxCell>
        <mxCell id="lnXDwb00k-55SOS0SMKl-14" value="1" style="rounded=0;whiteSpace=wrap;html=1;" vertex="1" parent="lnXDwb00k-55SOS0SMKl-1">
          <mxGeometry x="560" y="200" width="40" height="40" as="geometry" />
        </mxCell>
        <mxCell id="lnXDwb00k-55SOS0SMKl-25" style="edgeStyle=none;rounded=0;orthogonalLoop=1;jettySize=auto;html=1;exitX=1;exitY=0.5;exitDx=0;exitDy=0;entryX=0;entryY=0.5;entryDx=0;entryDy=0;" edge="1" parent="lnXDwb00k-55SOS0SMKl-1" source="lnXDwb00k-55SOS0SMKl-15" target="lnXDwb00k-55SOS0SMKl-16">
          <mxGeometry relative="1" as="geometry" />
        </mxCell>
        <mxCell id="lnXDwb00k-55SOS0SMKl-15" value="next" style="rounded=0;whiteSpace=wrap;html=1;" vertex="1" parent="lnXDwb00k-55SOS0SMKl-1">
          <mxGeometry x="600" y="200" width="40" height="40" as="geometry" />
        </mxCell>
        <mxCell id="lnXDwb00k-55SOS0SMKl-16" value="2" style="rounded=0;whiteSpace=wrap;html=1;" vertex="1" parent="lnXDwb00k-55SOS0SMKl-1">
          <mxGeometry x="680" y="200" width="40" height="40" as="geometry" />
        </mxCell>
        <mxCell id="lnXDwb00k-55SOS0SMKl-42" style="edgeStyle=none;rounded=0;orthogonalLoop=1;jettySize=auto;html=1;exitX=1;exitY=0.5;exitDx=0;exitDy=0;entryX=0;entryY=0.5;entryDx=0;entryDy=0;" edge="1" parent="lnXDwb00k-55SOS0SMKl-1" source="lnXDwb00k-55SOS0SMKl-17" target="lnXDwb00k-55SOS0SMKl-41">
          <mxGeometry relative="1" as="geometry" />
        </mxCell>
        <mxCell id="lnXDwb00k-55SOS0SMKl-17" value="next" style="rounded=0;whiteSpace=wrap;html=1;" vertex="1" parent="lnXDwb00k-55SOS0SMKl-1">
          <mxGeometry x="720" y="200" width="40" height="40" as="geometry" />
        </mxCell>
        <mxCell id="lnXDwb00k-55SOS0SMKl-21" style="edgeStyle=none;rounded=0;orthogonalLoop=1;jettySize=auto;html=1;exitX=0.5;exitY=1;exitDx=0;exitDy=0;entryX=0.5;entryY=0;entryDx=0;entryDy=0;" edge="1" parent="lnXDwb00k-55SOS0SMKl-1" source="lnXDwb00k-55SOS0SMKl-19" target="lnXDwb00k-55SOS0SMKl-20">
          <mxGeometry relative="1" as="geometry" />
        </mxCell>
        <mxCell id="lnXDwb00k-55SOS0SMKl-26" style="edgeStyle=none;rounded=0;orthogonalLoop=1;jettySize=auto;html=1;exitX=0.5;exitY=1;exitDx=0;exitDy=0;entryX=0.5;entryY=0;entryDx=0;entryDy=0;" edge="1" parent="lnXDwb00k-55SOS0SMKl-1" source="lnXDwb00k-55SOS0SMKl-19" target="lnXDwb00k-55SOS0SMKl-23">
          <mxGeometry relative="1" as="geometry" />
        </mxCell>
        <mxCell id="lnXDwb00k-55SOS0SMKl-19" value="内存的两种使用方式" style="text;html=1;strokeColor=none;fillColor=none;align=center;verticalAlign=middle;whiteSpace=wrap;rounded=0;" vertex="1" parent="lnXDwb00k-55SOS0SMKl-1">
          <mxGeometry x="330" y="80" width="160" height="40" as="geometry" />
        </mxCell>
        <mxCell id="lnXDwb00k-55SOS0SMKl-20" value="连续内存：数组" style="text;html=1;strokeColor=none;fillColor=none;align=center;verticalAlign=middle;whiteSpace=wrap;rounded=0;" vertex="1" parent="lnXDwb00k-55SOS0SMKl-1">
          <mxGeometry x="190" y="160" width="100" height="30" as="geometry" />
        </mxCell>
        <mxCell id="lnXDwb00k-55SOS0SMKl-23" value="&lt;span&gt;断续内存：链表&lt;/span&gt;" style="text;html=1;strokeColor=none;fillColor=none;align=center;verticalAlign=middle;whiteSpace=wrap;rounded=0;" vertex="1" parent="lnXDwb00k-55SOS0SMKl-1">
          <mxGeometry x="550" y="160" width="100" height="30" as="geometry" />
        </mxCell>
        <mxCell id="lnXDwb00k-55SOS0SMKl-28" value="数组与链表&lt;br&gt;数组是由一堆连续的内存组成，可直通过线性计算出每个元素的内存地址；链表是一堆不连续的内存组成，通过上一个元素记录下一个元素的地址方式来查找到所有的元素。&lt;br&gt;&lt;br&gt;结合程序申请内存的机制，数组需要预先估算大小，当数据存满后需要进行“扩容”操作，链表则可以是每次增加元素动态申请内存空间&lt;br&gt;&lt;br&gt;优缺点分析：&lt;br&gt;数组需要预先定义长度一次性申请空间，扩容时需要重新申请空间并完成赋值操作，当元素未存满时（预留空间）属于资源的浪费&lt;br&gt;链表每次动态申请空间，且要为 next 指针的空间属于额外开销&lt;br&gt;数组在插入和删除元素时会造成大量元素的移动，在修改和读取时可通计算元素位置直接操作&lt;br&gt;链表在插入和删除元素时操作方便，在修改和读取时需要遍历前面所有元素才能访问到元素" style="text;html=1;strokeColor=none;fillColor=none;align=left;verticalAlign=middle;whiteSpace=wrap;rounded=0;" vertex="1" parent="lnXDwb00k-55SOS0SMKl-1">
          <mxGeometry x="120" y="240" width="990" height="180" as="geometry" />
        </mxCell>
        <mxCell id="lnXDwb00k-55SOS0SMKl-33" value="0" style="rounded=0;whiteSpace=wrap;html=1;" vertex="1" parent="lnXDwb00k-55SOS0SMKl-1">
          <mxGeometry x="160" y="560" width="40" height="40" as="geometry" />
        </mxCell>
        <mxCell id="lnXDwb00k-55SOS0SMKl-34" value="1" style="rounded=0;whiteSpace=wrap;html=1;" vertex="1" parent="lnXDwb00k-55SOS0SMKl-1">
          <mxGeometry x="200" y="560" width="40" height="40" as="geometry" />
        </mxCell>
        <mxCell id="lnXDwb00k-55SOS0SMKl-35" value="2" style="rounded=0;whiteSpace=wrap;html=1;" vertex="1" parent="lnXDwb00k-55SOS0SMKl-1">
          <mxGeometry x="240" y="560" width="40" height="40" as="geometry" />
        </mxCell>
        <mxCell id="lnXDwb00k-55SOS0SMKl-36" value="3" style="rounded=0;whiteSpace=wrap;html=1;" vertex="1" parent="lnXDwb00k-55SOS0SMKl-1">
          <mxGeometry x="280" y="560" width="40" height="40" as="geometry" />
        </mxCell>
        <mxCell id="lnXDwb00k-55SOS0SMKl-40" style="edgeStyle=none;rounded=0;orthogonalLoop=1;jettySize=auto;html=1;exitX=0.5;exitY=0;exitDx=0;exitDy=0;entryX=0.5;entryY=1;entryDx=0;entryDy=0;" edge="1" parent="lnXDwb00k-55SOS0SMKl-1" source="lnXDwb00k-55SOS0SMKl-38" target="lnXDwb00k-55SOS0SMKl-39">
          <mxGeometry relative="1" as="geometry" />
        </mxCell>
        <mxCell id="lnXDwb00k-55SOS0SMKl-38" value="top" style="rounded=0;whiteSpace=wrap;html=1;" vertex="1" parent="lnXDwb00k-55SOS0SMKl-1">
          <mxGeometry x="320" y="640" width="40" height="40" as="geometry" />
        </mxCell>
        <mxCell id="lnXDwb00k-55SOS0SMKl-39" value="" style="rounded=0;whiteSpace=wrap;html=1;" vertex="1" parent="lnXDwb00k-55SOS0SMKl-1">
          <mxGeometry x="320" y="560" width="40" height="40" as="geometry" />
        </mxCell>
        <mxCell id="lnXDwb00k-55SOS0SMKl-41" value="" style="rounded=0;whiteSpace=wrap;html=1;" vertex="1" parent="lnXDwb00k-55SOS0SMKl-1">
          <mxGeometry x="800" y="200" width="40" height="40" as="geometry" />
        </mxCell>
        <mxCell id="lnXDwb00k-55SOS0SMKl-46" value="0" style="rounded=0;whiteSpace=wrap;html=1;" vertex="1" parent="lnXDwb00k-55SOS0SMKl-1">
          <mxGeometry x="720" y="560" width="40" height="40" as="geometry" />
        </mxCell>
        <mxCell id="lnXDwb00k-55SOS0SMKl-47" value="1" style="rounded=0;whiteSpace=wrap;html=1;" vertex="1" parent="lnXDwb00k-55SOS0SMKl-1">
          <mxGeometry x="760" y="560" width="40" height="40" as="geometry" />
        </mxCell>
        <mxCell id="lnXDwb00k-55SOS0SMKl-48" value="2" style="rounded=0;whiteSpace=wrap;html=1;" vertex="1" parent="lnXDwb00k-55SOS0SMKl-1">
          <mxGeometry x="800" y="560" width="40" height="40" as="geometry" />
        </mxCell>
        <mxCell id="lnXDwb00k-55SOS0SMKl-49" value="3" style="rounded=0;whiteSpace=wrap;html=1;" vertex="1" parent="lnXDwb00k-55SOS0SMKl-1">
          <mxGeometry x="840" y="560" width="40" height="40" as="geometry" />
        </mxCell>
        <mxCell id="lnXDwb00k-55SOS0SMKl-50" style="edgeStyle=none;rounded=0;orthogonalLoop=1;jettySize=auto;html=1;exitX=0.5;exitY=0;exitDx=0;exitDy=0;entryX=0.5;entryY=1;entryDx=0;entryDy=0;" edge="1" parent="lnXDwb00k-55SOS0SMKl-1" source="lnXDwb00k-55SOS0SMKl-51" target="lnXDwb00k-55SOS0SMKl-52">
          <mxGeometry relative="1" as="geometry" />
        </mxCell>
        <mxCell id="lnXDwb00k-55SOS0SMKl-51" value="tail" style="rounded=0;whiteSpace=wrap;html=1;" vertex="1" parent="lnXDwb00k-55SOS0SMKl-1">
          <mxGeometry x="880" y="640" width="40" height="40" as="geometry" />
        </mxCell>
        <mxCell id="lnXDwb00k-55SOS0SMKl-52" value="" style="rounded=0;whiteSpace=wrap;html=1;" vertex="1" parent="lnXDwb00k-55SOS0SMKl-1">
          <mxGeometry x="880" y="560" width="40" height="40" as="geometry" />
        </mxCell>
        <mxCell id="lnXDwb00k-55SOS0SMKl-54" style="edgeStyle=none;rounded=0;orthogonalLoop=1;jettySize=auto;html=1;exitX=0.5;exitY=1;exitDx=0;exitDy=0;entryX=0.5;entryY=0;entryDx=0;entryDy=0;" edge="1" parent="lnXDwb00k-55SOS0SMKl-1" source="lnXDwb00k-55SOS0SMKl-53" target="lnXDwb00k-55SOS0SMKl-46">
          <mxGeometry relative="1" as="geometry" />
        </mxCell>
        <mxCell id="lnXDwb00k-55SOS0SMKl-53" value="front" style="rounded=0;whiteSpace=wrap;html=1;" vertex="1" parent="lnXDwb00k-55SOS0SMKl-1">
          <mxGeometry x="720" y="480" width="40" height="40" as="geometry" />
        </mxCell>
        <mxCell id="lnXDwb00k-55SOS0SMKl-59" style="edgeStyle=none;rounded=0;orthogonalLoop=1;jettySize=auto;html=1;exitX=0.5;exitY=1;exitDx=0;exitDy=0;entryX=0.5;entryY=0;entryDx=0;entryDy=0;" edge="1" parent="lnXDwb00k-55SOS0SMKl-1" source="lnXDwb00k-55SOS0SMKl-56" target="lnXDwb00k-55SOS0SMKl-57">
          <mxGeometry relative="1" as="geometry" />
        </mxCell>
        <mxCell id="lnXDwb00k-55SOS0SMKl-60" style="edgeStyle=none;rounded=0;orthogonalLoop=1;jettySize=auto;html=1;exitX=0.5;exitY=1;exitDx=0;exitDy=0;entryX=0.5;entryY=0;entryDx=0;entryDy=0;" edge="1" parent="lnXDwb00k-55SOS0SMKl-1" source="lnXDwb00k-55SOS0SMKl-56" target="lnXDwb00k-55SOS0SMKl-58">
          <mxGeometry relative="1" as="geometry" />
        </mxCell>
        <mxCell id="lnXDwb00k-55SOS0SMKl-62" style="edgeStyle=none;rounded=0;orthogonalLoop=1;jettySize=auto;html=1;exitX=0.5;exitY=1;exitDx=0;exitDy=0;entryX=0.5;entryY=0;entryDx=0;entryDy=0;" edge="1" parent="lnXDwb00k-55SOS0SMKl-1" source="lnXDwb00k-55SOS0SMKl-56" target="lnXDwb00k-55SOS0SMKl-61">
          <mxGeometry relative="1" as="geometry" />
        </mxCell>
        <mxCell id="lnXDwb00k-55SOS0SMKl-56" value="0" style="rounded=0;whiteSpace=wrap;html=1;" vertex="1" parent="lnXDwb00k-55SOS0SMKl-1">
          <mxGeometry x="240" y="800" width="40" height="40" as="geometry" />
        </mxCell>
        <mxCell id="lnXDwb00k-55SOS0SMKl-78" style="edgeStyle=none;rounded=0;orthogonalLoop=1;jettySize=auto;html=1;exitX=0.5;exitY=1;exitDx=0;exitDy=0;entryX=0.5;entryY=0;entryDx=0;entryDy=0;" edge="1" parent="lnXDwb00k-55SOS0SMKl-1" source="lnXDwb00k-55SOS0SMKl-57" target="lnXDwb00k-55SOS0SMKl-67">
          <mxGeometry relative="1" as="geometry" />
        </mxCell>
        <mxCell id="lnXDwb00k-55SOS0SMKl-57" value="1" style="rounded=0;whiteSpace=wrap;html=1;" vertex="1" parent="lnXDwb00k-55SOS0SMKl-1">
          <mxGeometry x="160" y="880" width="40" height="40" as="geometry" />
        </mxCell>
        <mxCell id="lnXDwb00k-55SOS0SMKl-106" style="edgeStyle=none;rounded=0;orthogonalLoop=1;jettySize=auto;html=1;exitX=0.5;exitY=1;exitDx=0;exitDy=0;entryX=0.5;entryY=0;entryDx=0;entryDy=0;" edge="1" parent="lnXDwb00k-55SOS0SMKl-1" source="lnXDwb00k-55SOS0SMKl-58" target="lnXDwb00k-55SOS0SMKl-105">
          <mxGeometry relative="1" as="geometry" />
        </mxCell>
        <mxCell id="lnXDwb00k-55SOS0SMKl-58" value="2" style="rounded=0;whiteSpace=wrap;html=1;" vertex="1" parent="lnXDwb00k-55SOS0SMKl-1">
          <mxGeometry x="240" y="880" width="40" height="40" as="geometry" />
        </mxCell>
        <mxCell id="lnXDwb00k-55SOS0SMKl-79" style="edgeStyle=none;rounded=0;orthogonalLoop=1;jettySize=auto;html=1;exitX=0.5;exitY=1;exitDx=0;exitDy=0;entryX=0.5;entryY=0;entryDx=0;entryDy=0;" edge="1" parent="lnXDwb00k-55SOS0SMKl-1" source="lnXDwb00k-55SOS0SMKl-61" target="lnXDwb00k-55SOS0SMKl-74">
          <mxGeometry relative="1" as="geometry" />
        </mxCell>
        <mxCell id="lnXDwb00k-55SOS0SMKl-61" value="3" style="rounded=0;whiteSpace=wrap;html=1;" vertex="1" parent="lnXDwb00k-55SOS0SMKl-1">
          <mxGeometry x="320" y="880" width="40" height="40" as="geometry" />
        </mxCell>
        <mxCell id="lnXDwb00k-55SOS0SMKl-67" value="4" style="rounded=0;whiteSpace=wrap;html=1;" vertex="1" parent="lnXDwb00k-55SOS0SMKl-1">
          <mxGeometry x="160" y="960" width="40" height="40" as="geometry" />
        </mxCell>
        <mxCell id="lnXDwb00k-55SOS0SMKl-74" value="6" style="rounded=0;whiteSpace=wrap;html=1;" vertex="1" parent="lnXDwb00k-55SOS0SMKl-1">
          <mxGeometry x="320" y="960" width="40" height="40" as="geometry" />
        </mxCell>
        <mxCell id="lnXDwb00k-55SOS0SMKl-94" style="edgeStyle=none;rounded=0;orthogonalLoop=1;jettySize=auto;html=1;exitX=1;exitY=0.5;exitDx=0;exitDy=0;entryX=0;entryY=0.5;entryDx=0;entryDy=0;" edge="1" parent="lnXDwb00k-55SOS0SMKl-1" source="lnXDwb00k-55SOS0SMKl-83" target="lnXDwb00k-55SOS0SMKl-86">
          <mxGeometry relative="1" as="geometry" />
        </mxCell>
        <mxCell id="lnXDwb00k-55SOS0SMKl-95" style="edgeStyle=none;rounded=0;orthogonalLoop=1;jettySize=auto;html=1;exitX=0.5;exitY=1;exitDx=0;exitDy=0;entryX=0.5;entryY=0;entryDx=0;entryDy=0;" edge="1" parent="lnXDwb00k-55SOS0SMKl-1" source="lnXDwb00k-55SOS0SMKl-83" target="lnXDwb00k-55SOS0SMKl-85">
          <mxGeometry relative="1" as="geometry" />
        </mxCell>
        <mxCell id="lnXDwb00k-55SOS0SMKl-83" value="0" style="rounded=0;whiteSpace=wrap;html=1;" vertex="1" parent="lnXDwb00k-55SOS0SMKl-1">
          <mxGeometry x="720" y="800" width="40" height="40" as="geometry" />
        </mxCell>
        <mxCell id="lnXDwb00k-55SOS0SMKl-96" style="edgeStyle=none;rounded=0;orthogonalLoop=1;jettySize=auto;html=1;exitX=1;exitY=0.5;exitDx=0;exitDy=0;entryX=0;entryY=0.5;entryDx=0;entryDy=0;" edge="1" parent="lnXDwb00k-55SOS0SMKl-1" source="lnXDwb00k-55SOS0SMKl-85" target="lnXDwb00k-55SOS0SMKl-88">
          <mxGeometry relative="1" as="geometry" />
        </mxCell>
        <mxCell id="lnXDwb00k-55SOS0SMKl-101" style="edgeStyle=none;rounded=0;orthogonalLoop=1;jettySize=auto;html=1;exitX=0.5;exitY=1;exitDx=0;exitDy=0;" edge="1" parent="lnXDwb00k-55SOS0SMKl-1" source="lnXDwb00k-55SOS0SMKl-85">
          <mxGeometry relative="1" as="geometry">
            <mxPoint x="740" y="960" as="targetPoint" />
          </mxGeometry>
        </mxCell>
        <mxCell id="lnXDwb00k-55SOS0SMKl-85" value="1" style="rounded=0;whiteSpace=wrap;html=1;" vertex="1" parent="lnXDwb00k-55SOS0SMKl-1">
          <mxGeometry x="720" y="880" width="40" height="40" as="geometry" />
        </mxCell>
        <mxCell id="lnXDwb00k-55SOS0SMKl-98" style="edgeStyle=none;rounded=0;orthogonalLoop=1;jettySize=auto;html=1;exitX=1;exitY=0.5;exitDx=0;exitDy=0;entryX=0;entryY=0.5;entryDx=0;entryDy=0;" edge="1" parent="lnXDwb00k-55SOS0SMKl-1" source="lnXDwb00k-55SOS0SMKl-86" target="lnXDwb00k-55SOS0SMKl-91">
          <mxGeometry relative="1" as="geometry" />
        </mxCell>
        <mxCell id="lnXDwb00k-55SOS0SMKl-86" value="2" style="rounded=0;whiteSpace=wrap;html=1;" vertex="1" parent="lnXDwb00k-55SOS0SMKl-1">
          <mxGeometry x="800" y="800" width="40" height="40" as="geometry" />
        </mxCell>
        <mxCell id="lnXDwb00k-55SOS0SMKl-97" style="edgeStyle=none;rounded=0;orthogonalLoop=1;jettySize=auto;html=1;exitX=0.5;exitY=0;exitDx=0;exitDy=0;entryX=0.5;entryY=1;entryDx=0;entryDy=0;" edge="1" parent="lnXDwb00k-55SOS0SMKl-1" source="lnXDwb00k-55SOS0SMKl-88" target="lnXDwb00k-55SOS0SMKl-86">
          <mxGeometry relative="1" as="geometry" />
        </mxCell>
        <mxCell id="lnXDwb00k-55SOS0SMKl-103" style="edgeStyle=none;rounded=0;orthogonalLoop=1;jettySize=auto;html=1;exitX=0.5;exitY=0;exitDx=0;exitDy=0;entryX=0.5;entryY=1;entryDx=0;entryDy=0;" edge="1" parent="lnXDwb00k-55SOS0SMKl-1" source="lnXDwb00k-55SOS0SMKl-88" target="lnXDwb00k-55SOS0SMKl-83">
          <mxGeometry relative="1" as="geometry" />
        </mxCell>
        <mxCell id="lnXDwb00k-55SOS0SMKl-88" value="3" style="rounded=0;whiteSpace=wrap;html=1;" vertex="1" parent="lnXDwb00k-55SOS0SMKl-1">
          <mxGeometry x="800" y="880" width="40" height="40" as="geometry" />
        </mxCell>
        <mxCell id="lnXDwb00k-55SOS0SMKl-102" style="edgeStyle=none;rounded=0;orthogonalLoop=1;jettySize=auto;html=1;exitX=1;exitY=0.5;exitDx=0;exitDy=0;entryX=0.5;entryY=1;entryDx=0;entryDy=0;" edge="1" parent="lnXDwb00k-55SOS0SMKl-1" source="lnXDwb00k-55SOS0SMKl-89" target="lnXDwb00k-55SOS0SMKl-88">
          <mxGeometry relative="1" as="geometry" />
        </mxCell>
        <mxCell id="lnXDwb00k-55SOS0SMKl-89" value="4" style="rounded=0;whiteSpace=wrap;html=1;" vertex="1" parent="lnXDwb00k-55SOS0SMKl-1">
          <mxGeometry x="720" y="960" width="40" height="40" as="geometry" />
        </mxCell>
        <mxCell id="lnXDwb00k-55SOS0SMKl-99" style="edgeStyle=none;rounded=0;orthogonalLoop=1;jettySize=auto;html=1;exitX=0.5;exitY=1;exitDx=0;exitDy=0;entryX=0.5;entryY=0;entryDx=0;entryDy=0;" edge="1" parent="lnXDwb00k-55SOS0SMKl-1" source="lnXDwb00k-55SOS0SMKl-91" target="lnXDwb00k-55SOS0SMKl-92">
          <mxGeometry relative="1" as="geometry" />
        </mxCell>
        <mxCell id="lnXDwb00k-55SOS0SMKl-91" value="5" style="rounded=0;whiteSpace=wrap;html=1;" vertex="1" parent="lnXDwb00k-55SOS0SMKl-1">
          <mxGeometry x="880" y="800" width="40" height="40" as="geometry" />
        </mxCell>
        <mxCell id="lnXDwb00k-55SOS0SMKl-100" style="edgeStyle=none;rounded=0;orthogonalLoop=1;jettySize=auto;html=1;exitX=0.5;exitY=1;exitDx=0;exitDy=0;entryX=0.5;entryY=0;entryDx=0;entryDy=0;" edge="1" parent="lnXDwb00k-55SOS0SMKl-1" source="lnXDwb00k-55SOS0SMKl-92" target="lnXDwb00k-55SOS0SMKl-89">
          <mxGeometry relative="1" as="geometry" />
        </mxCell>
        <mxCell id="lnXDwb00k-55SOS0SMKl-92" value="6" style="rounded=0;whiteSpace=wrap;html=1;" vertex="1" parent="lnXDwb00k-55SOS0SMKl-1">
          <mxGeometry x="880" y="880" width="40" height="40" as="geometry" />
        </mxCell>
        <mxCell id="lnXDwb00k-55SOS0SMKl-105" value="5" style="rounded=0;whiteSpace=wrap;html=1;" vertex="1" parent="lnXDwb00k-55SOS0SMKl-1">
          <mxGeometry x="240" y="960" width="40" height="40" as="geometry" />
        </mxCell>
        <mxCell id="38gwD2kqv60m07i-RM1m-0" value="栈" style="text;html=1;strokeColor=none;fillColor=none;align=center;verticalAlign=middle;whiteSpace=wrap;rounded=0;" vertex="1" parent="lnXDwb00k-55SOS0SMKl-1">
          <mxGeometry x="240" y="690" width="40" height="20" as="geometry" />
        </mxCell>
        <mxCell id="38gwD2kqv60m07i-RM1m-1" value="队" style="text;html=1;strokeColor=none;fillColor=none;align=center;verticalAlign=middle;whiteSpace=wrap;rounded=0;" vertex="1" parent="lnXDwb00k-55SOS0SMKl-1">
          <mxGeometry x="800" y="690" width="40" height="20" as="geometry" />
        </mxCell>
        <mxCell id="38gwD2kqv60m07i-RM1m-2" value="树" style="text;html=1;strokeColor=none;fillColor=none;align=center;verticalAlign=middle;whiteSpace=wrap;rounded=0;" vertex="1" parent="lnXDwb00k-55SOS0SMKl-1">
          <mxGeometry x="240" y="1010" width="40" height="20" as="geometry" />
        </mxCell>
        <mxCell id="38gwD2kqv60m07i-RM1m-3" value="图" style="text;html=1;strokeColor=none;fillColor=none;align=center;verticalAlign=middle;whiteSpace=wrap;rounded=0;" vertex="1" parent="lnXDwb00k-55SOS0SMKl-1">
          <mxGeometry x="800" y="1010" width="40" height="20" as="geometry" />
        </mxCell>
        <mxCell id="38gwD2kqv60m07i-RM1m-5" value="栈是线性结构，元素线性存储，由 top 指针维护栈顶位置&lt;br&gt;" style="text;html=1;strokeColor=none;fillColor=none;align=left;verticalAlign=middle;whiteSpace=wrap;rounded=0;" vertex="1" parent="lnXDwb00k-55SOS0SMKl-1">
          <mxGeometry x="160" y="1040" width="800" height="180" as="geometry" />
        </mxCell>
      </root>
    </mxGraphModel>
  </diagram>
  <diagram id="_ftIEuQbQowRMAcyedYQ" name="哈希算法">
    <mxGraphModel dx="946" dy="611" grid="1" gridSize="10" guides="1" tooltips="1" connect="1" arrows="1" fold="1" page="1" pageScale="1" pageWidth="3300" pageHeight="4681" math="1" shadow="0">
      <root>
        <mxCell id="0" />
        <mxCell id="1" parent="0" />
        <mxCell id="ZgCmA2nvShc4hJAHGpMs-3" style="edgeStyle=none;rounded=0;orthogonalLoop=1;jettySize=auto;html=1;exitX=1;exitY=0.5;exitDx=0;exitDy=0;entryX=0;entryY=0.5;entryDx=0;entryDy=0;" parent="1" source="ZgCmA2nvShc4hJAHGpMs-1" target="ZgCmA2nvShc4hJAHGpMs-2" edge="1">
          <mxGeometry relative="1" as="geometry" />
        </mxCell>
        <mxCell id="ZgCmA2nvShc4hJAHGpMs-1" value="什么是哈希算法？" style="ellipse;whiteSpace=wrap;html=1;" parent="1" vertex="1">
          <mxGeometry x="540" y="175" width="190" height="70" as="geometry" />
        </mxCell>
        <mxCell id="ZgCmA2nvShc4hJAHGpMs-2" value="哈希表（也称为散列表），是根据 键直接访问内存存储位置的数据结构。它通过一个关于键值的函数将所需查询的数据映射到表的一个位置来进行访问，这样加快了查找速度。这个函数称为哈希函数。&lt;br&gt;哈希算法是根据哈希函数和一张哈希表构成的" style="rounded=0;whiteSpace=wrap;html=1;" parent="1" vertex="1">
          <mxGeometry x="870" y="170" width="380" height="80" as="geometry" />
        </mxCell>
        <mxCell id="ZgCmA2nvShc4hJAHGpMs-7" style="edgeStyle=none;rounded=0;orthogonalLoop=1;jettySize=auto;html=1;exitX=1;exitY=0.5;exitDx=0;exitDy=0;entryX=0;entryY=0.5;entryDx=0;entryDy=0;" parent="1" source="ZgCmA2nvShc4hJAHGpMs-4" target="ZgCmA2nvShc4hJAHGpMs-6" edge="1">
          <mxGeometry relative="1" as="geometry" />
        </mxCell>
        <mxCell id="ZgCmA2nvShc4hJAHGpMs-4" value="普通哈希算法在分布式应用的中不足？" style="ellipse;whiteSpace=wrap;html=1;" parent="1" vertex="1">
          <mxGeometry x="500" y="355" width="250" height="70" as="geometry" />
        </mxCell>
        <mxCell id="ZgCmA2nvShc4hJAHGpMs-9" style="edgeStyle=none;rounded=0;orthogonalLoop=1;jettySize=auto;html=1;exitX=0.5;exitY=1;exitDx=0;exitDy=0;entryX=0.5;entryY=0;entryDx=0;entryDy=0;" parent="1" source="ZgCmA2nvShc4hJAHGpMs-6" target="ZgCmA2nvShc4hJAHGpMs-8" edge="1">
          <mxGeometry relative="1" as="geometry" />
        </mxCell>
        <mxCell id="ZgCmA2nvShc4hJAHGpMs-6" value="在分布式系统中，要将数据存储到具体的节点中，如果采用普通的哈希算法进行路由，将数据映射到具体节点上，如 `f(key) = key % n`，那么，在添加添加节点或节点退出时，所有的映射都无效了，如果是持久化存储则要做数据迁移。" style="rounded=0;whiteSpace=wrap;html=1;" parent="1" vertex="1">
          <mxGeometry x="870" y="350" width="650" height="80" as="geometry" />
        </mxCell>
        <mxCell id="wSCQ2BmdZy3b9YI79-c1-19" style="edgeStyle=none;rounded=0;orthogonalLoop=1;jettySize=auto;html=1;exitX=1;exitY=0.5;exitDx=0;exitDy=0;entryX=0;entryY=0.5;entryDx=0;entryDy=0;" parent="1" source="ZgCmA2nvShc4hJAHGpMs-8" target="ZgCmA2nvShc4hJAHGpMs-10" edge="1">
          <mxGeometry relative="1" as="geometry" />
        </mxCell>
        <mxCell id="wSCQ2BmdZy3b9YI79-c1-20" style="edgeStyle=none;rounded=0;orthogonalLoop=1;jettySize=auto;html=1;exitX=0.5;exitY=1;exitDx=0;exitDy=0;" parent="1" source="ZgCmA2nvShc4hJAHGpMs-8" target="wSCQ2BmdZy3b9YI79-c1-7" edge="1">
          <mxGeometry relative="1" as="geometry" />
        </mxCell>
        <mxCell id="wSCQ2BmdZy3b9YI79-c1-27" style="edgeStyle=none;rounded=0;orthogonalLoop=1;jettySize=auto;html=1;exitX=0;exitY=0.5;exitDx=0;exitDy=0;" parent="1" source="ZgCmA2nvShc4hJAHGpMs-8" target="wSCQ2BmdZy3b9YI79-c1-1" edge="1">
          <mxGeometry relative="1" as="geometry" />
        </mxCell>
        <mxCell id="ZgCmA2nvShc4hJAHGpMs-8" value="一致性哈希算法" style="ellipse;whiteSpace=wrap;html=1;aspect=fixed;" parent="1" vertex="1">
          <mxGeometry x="1145" y="535" width="100" height="100" as="geometry" />
        </mxCell>
        <mxCell id="ZgCmA2nvShc4hJAHGpMs-13" value="" style="edgeStyle=none;rounded=0;orthogonalLoop=1;jettySize=auto;html=1;exitX=1;exitY=0.5;exitDx=0;exitDy=0;entryX=0;entryY=0.5;entryDx=0;entryDy=0;" parent="1" source="ZgCmA2nvShc4hJAHGpMs-10" target="ZgCmA2nvShc4hJAHGpMs-12" edge="1">
          <mxGeometry relative="1" as="geometry" />
        </mxCell>
        <mxCell id="ZgCmA2nvShc4hJAHGpMs-17" style="edgeStyle=none;rounded=0;orthogonalLoop=1;jettySize=auto;html=1;exitX=1;exitY=0.5;exitDx=0;exitDy=0;entryX=0;entryY=0.5;entryDx=0;entryDy=0;" parent="1" source="ZgCmA2nvShc4hJAHGpMs-10" target="ZgCmA2nvShc4hJAHGpMs-14" edge="1">
          <mxGeometry relative="1" as="geometry" />
        </mxCell>
        <mxCell id="ZgCmA2nvShc4hJAHGpMs-18" style="edgeStyle=none;rounded=0;orthogonalLoop=1;jettySize=auto;html=1;exitX=1;exitY=0.5;exitDx=0;exitDy=0;entryX=0.008;entryY=0.633;entryDx=0;entryDy=0;entryPerimeter=0;" parent="1" source="ZgCmA2nvShc4hJAHGpMs-10" target="ZgCmA2nvShc4hJAHGpMs-15" edge="1">
          <mxGeometry relative="1" as="geometry" />
        </mxCell>
        <mxCell id="ZgCmA2nvShc4hJAHGpMs-19" style="edgeStyle=none;rounded=0;orthogonalLoop=1;jettySize=auto;html=1;exitX=1;exitY=0.5;exitDx=0;exitDy=0;entryX=0;entryY=0.5;entryDx=0;entryDy=0;" parent="1" source="ZgCmA2nvShc4hJAHGpMs-10" target="ZgCmA2nvShc4hJAHGpMs-16" edge="1">
          <mxGeometry relative="1" as="geometry" />
        </mxCell>
        <mxCell id="ZgCmA2nvShc4hJAHGpMs-10" value="一致性哈希算法提出了在动态变化的环境中，都需要满足四个条件" style="whiteSpace=wrap;html=1;" parent="1" vertex="1">
          <mxGeometry x="1390" y="560" width="205" height="50" as="geometry" />
        </mxCell>
        <mxCell id="ZgCmA2nvShc4hJAHGpMs-12" value="均衡性" style="whiteSpace=wrap;html=1;" parent="1" vertex="1">
          <mxGeometry x="1718.75" y="450" width="120" height="60" as="geometry" />
        </mxCell>
        <mxCell id="ZgCmA2nvShc4hJAHGpMs-14" value="单调性" style="whiteSpace=wrap;html=1;" parent="1" vertex="1">
          <mxGeometry x="1718.75" y="520" width="120" height="60" as="geometry" />
        </mxCell>
        <mxCell id="ZgCmA2nvShc4hJAHGpMs-15" value="分散性" style="whiteSpace=wrap;html=1;" parent="1" vertex="1">
          <mxGeometry x="1718.75" y="590" width="120" height="60" as="geometry" />
        </mxCell>
        <mxCell id="ZgCmA2nvShc4hJAHGpMs-16" value="负载性" style="whiteSpace=wrap;html=1;" parent="1" vertex="1">
          <mxGeometry x="1718.75" y="660" width="120" height="60" as="geometry" />
        </mxCell>
        <mxCell id="wSCQ2BmdZy3b9YI79-c1-1" value="&lt;ol&gt;&lt;li&gt;选择一个足够大的空间，如 `0 ~ 2^32` 构成一个哈希环&lt;/li&gt;&lt;li&gt;对于集群内的每个节点计算哈希值，哈希值在哈希环上&lt;/li&gt;&lt;li&gt;对每个需要存储的数据键值同样的计算一次哈希值，哈希值也映射到哈希环上&lt;/li&gt;&lt;li&gt;数据存储的位置是沿顺时针的方向找到环上的第一个节点&lt;/li&gt;&lt;/ol&gt;" style="whiteSpace=wrap;html=1;" parent="1" vertex="1">
          <mxGeometry x="350" y="515" width="620" height="140" as="geometry" />
        </mxCell>
        <mxCell id="wSCQ2BmdZy3b9YI79-c1-6" style="edgeStyle=orthogonalEdgeStyle;rounded=0;orthogonalLoop=1;jettySize=auto;html=1;exitX=1;exitY=0.5;exitDx=0;exitDy=0;entryX=0;entryY=0.5;entryDx=0;entryDy=0;" parent="1" source="wSCQ2BmdZy3b9YI79-c1-3" target="wSCQ2BmdZy3b9YI79-c1-5" edge="1">
          <mxGeometry relative="1" as="geometry" />
        </mxCell>
        <mxCell id="wSCQ2BmdZy3b9YI79-c1-3" value="一致性哈希是把节点的变动造成的影响控制在顺时针相邻节点之间，避免对整个集群都造成影响" style="rounded=0;whiteSpace=wrap;html=1;" parent="1" vertex="1">
          <mxGeometry x="1400" y="760" width="360" height="80" as="geometry" />
        </mxCell>
        <mxCell id="wSCQ2BmdZy3b9YI79-c1-5" value="不能把影响减少到零" style="rounded=0;whiteSpace=wrap;html=1;" parent="1" vertex="1">
          <mxGeometry x="1838.75" y="765" width="280" height="70" as="geometry" />
        </mxCell>
        <mxCell id="wSCQ2BmdZy3b9YI79-c1-8" style="rounded=0;orthogonalLoop=1;jettySize=auto;html=1;exitX=1;exitY=0.5;exitDx=0;exitDy=0;entryX=0;entryY=0.5;entryDx=0;entryDy=0;" parent="1" source="wSCQ2BmdZy3b9YI79-c1-7" target="wSCQ2BmdZy3b9YI79-c1-3" edge="1">
          <mxGeometry relative="1" as="geometry" />
        </mxCell>
        <mxCell id="wSCQ2BmdZy3b9YI79-c1-11" style="edgeStyle=none;rounded=0;orthogonalLoop=1;jettySize=auto;html=1;exitX=1;exitY=0.5;exitDx=0;exitDy=0;entryX=0;entryY=0.5;entryDx=0;entryDy=0;" parent="1" source="wSCQ2BmdZy3b9YI79-c1-7" target="wSCQ2BmdZy3b9YI79-c1-9" edge="1">
          <mxGeometry relative="1" as="geometry" />
        </mxCell>
        <mxCell id="wSCQ2BmdZy3b9YI79-c1-14" style="edgeStyle=none;rounded=0;orthogonalLoop=1;jettySize=auto;html=1;exitX=1;exitY=0.5;exitDx=0;exitDy=0;entryX=0;entryY=0.5;entryDx=0;entryDy=0;" parent="1" source="wSCQ2BmdZy3b9YI79-c1-7" target="wSCQ2BmdZy3b9YI79-c1-13" edge="1">
          <mxGeometry relative="1" as="geometry" />
        </mxCell>
        <mxCell id="wSCQ2BmdZy3b9YI79-c1-22" style="edgeStyle=none;rounded=0;orthogonalLoop=1;jettySize=auto;html=1;exitX=0.5;exitY=1;exitDx=0;exitDy=0;" parent="1" source="wSCQ2BmdZy3b9YI79-c1-7" target="wSCQ2BmdZy3b9YI79-c1-21" edge="1">
          <mxGeometry relative="1" as="geometry" />
        </mxCell>
        <mxCell id="wSCQ2BmdZy3b9YI79-c1-7" value="存在的问题" style="rounded=0;whiteSpace=wrap;html=1;" parent="1" vertex="1">
          <mxGeometry x="1135" y="875" width="120" height="60" as="geometry" />
        </mxCell>
        <mxCell id="wSCQ2BmdZy3b9YI79-c1-12" style="edgeStyle=none;rounded=0;orthogonalLoop=1;jettySize=auto;html=1;exitX=1;exitY=0.5;exitDx=0;exitDy=0;entryX=0;entryY=0.5;entryDx=0;entryDy=0;" parent="1" source="wSCQ2BmdZy3b9YI79-c1-9" target="wSCQ2BmdZy3b9YI79-c1-10" edge="1">
          <mxGeometry relative="1" as="geometry" />
        </mxCell>
        <mxCell id="wSCQ2BmdZy3b9YI79-c1-15" style="edgeStyle=none;rounded=0;orthogonalLoop=1;jettySize=auto;html=1;exitX=0.5;exitY=1;exitDx=0;exitDy=0;entryX=0.5;entryY=0;entryDx=0;entryDy=0;" parent="1" source="wSCQ2BmdZy3b9YI79-c1-9" target="wSCQ2BmdZy3b9YI79-c1-13" edge="1">
          <mxGeometry relative="1" as="geometry" />
        </mxCell>
        <mxCell id="wSCQ2BmdZy3b9YI79-c1-9" value="数据倾斜" style="rounded=0;whiteSpace=wrap;html=1;" parent="1" vertex="1">
          <mxGeometry x="1400" y="875" width="120" height="60" as="geometry" />
        </mxCell>
        <mxCell id="wSCQ2BmdZy3b9YI79-c1-10" value="数据和节点，只要有一个分布不均就可能造成数据集中在某一台节点上" style="rounded=0;whiteSpace=wrap;html=1;" parent="1" vertex="1">
          <mxGeometry x="1553.75" y="875" width="450" height="60" as="geometry" />
        </mxCell>
        <mxCell id="wSCQ2BmdZy3b9YI79-c1-17" style="edgeStyle=none;rounded=0;orthogonalLoop=1;jettySize=auto;html=1;exitX=1;exitY=0.5;exitDx=0;exitDy=0;entryX=0;entryY=0.5;entryDx=0;entryDy=0;" parent="1" source="wSCQ2BmdZy3b9YI79-c1-13" target="wSCQ2BmdZy3b9YI79-c1-16" edge="1">
          <mxGeometry relative="1" as="geometry" />
        </mxCell>
        <mxCell id="wSCQ2BmdZy3b9YI79-c1-13" value="节点雪崩" style="rounded=0;whiteSpace=wrap;html=1;" parent="1" vertex="1">
          <mxGeometry x="1400" y="970" width="120" height="60" as="geometry" />
        </mxCell>
        <mxCell id="wSCQ2BmdZy3b9YI79-c1-16" value="数据倾斜或宕机，然后产生节点的连锁反应" style="rounded=0;whiteSpace=wrap;html=1;" parent="1" vertex="1">
          <mxGeometry x="1560" y="970" width="310" height="60" as="geometry" />
        </mxCell>
        <mxCell id="wSCQ2BmdZy3b9YI79-c1-24" style="edgeStyle=none;rounded=0;orthogonalLoop=1;jettySize=auto;html=1;exitX=1;exitY=0.5;exitDx=0;exitDy=0;" parent="1" source="wSCQ2BmdZy3b9YI79-c1-21" target="wSCQ2BmdZy3b9YI79-c1-23" edge="1">
          <mxGeometry relative="1" as="geometry" />
        </mxCell>
        <mxCell id="wSCQ2BmdZy3b9YI79-c1-21" value="虚拟节点" style="rounded=0;whiteSpace=wrap;html=1;" parent="1" vertex="1">
          <mxGeometry x="1135" y="1090" width="120" height="60" as="geometry" />
        </mxCell>
        <mxCell id="wSCQ2BmdZy3b9YI79-c1-26" style="edgeStyle=none;rounded=0;orthogonalLoop=1;jettySize=auto;html=1;exitX=1;exitY=0.5;exitDx=0;exitDy=0;" parent="1" source="wSCQ2BmdZy3b9YI79-c1-23" target="wSCQ2BmdZy3b9YI79-c1-25" edge="1">
          <mxGeometry relative="1" as="geometry" />
        </mxCell>
        <mxCell id="wSCQ2BmdZy3b9YI79-c1-23" value="对单一的物理节点进行“分身”出虚拟节点，虚拟节点均衡分布在哈希环上；属于虚拟节点的数据都存储到相应的物理节点上" style="rounded=0;whiteSpace=wrap;html=1;" parent="1" vertex="1">
          <mxGeometry x="1320" y="1085" width="410" height="70" as="geometry" />
        </mxCell>
        <mxCell id="wSCQ2BmdZy3b9YI79-c1-25" value="由于虚拟节点分散在哈希环的各个部分，当某个物理节点下线时，所有相应的虚拟节点都会下线，但是数据会重新发散给多个虚拟节点的相邻节点，多个节点分摊压力，能在一定程度上避免雪崩（连锁反应）" style="rounded=0;whiteSpace=wrap;html=1;" parent="1" vertex="1">
          <mxGeometry x="1810" y="1085" width="460" height="60" as="geometry" />
        </mxCell>
      </root>
    </mxGraphModel>
  </diagram>
  <diagram id="RX99-fU9jca6GVLDJZ-t" name="排序">
    <mxGraphModel dx="946" dy="611" grid="1" gridSize="10" guides="1" tooltips="1" connect="1" arrows="1" fold="1" page="1" pageScale="1" pageWidth="3300" pageHeight="4681" math="1" shadow="0">
      <root>
        <mxCell id="9bjt-Q4PApvt6V4Nclcf-0" />
        <mxCell id="9bjt-Q4PApvt6V4Nclcf-1" parent="9bjt-Q4PApvt6V4Nclcf-0" />
        <mxCell id="9bjt-Q4PApvt6V4Nclcf-4" style="edgeStyle=orthogonalEdgeStyle;rounded=0;orthogonalLoop=1;jettySize=auto;html=1;exitX=1;exitY=0.5;exitDx=0;exitDy=0;entryX=0;entryY=0.5;entryDx=0;entryDy=0;" parent="9bjt-Q4PApvt6V4Nclcf-1" source="9bjt-Q4PApvt6V4Nclcf-2" target="9bjt-Q4PApvt6V4Nclcf-3" edge="1">
          <mxGeometry relative="1" as="geometry" />
        </mxCell>
        <mxCell id="9bjt-Q4PApvt6V4Nclcf-2" value="插入排序" style="rounded=0;whiteSpace=wrap;html=1;" parent="9bjt-Q4PApvt6V4Nclcf-1" vertex="1">
          <mxGeometry x="160" y="140" width="120" height="60" as="geometry" />
        </mxCell>
        <mxCell id="9bjt-Q4PApvt6V4Nclcf-6" style="edgeStyle=orthogonalEdgeStyle;rounded=0;orthogonalLoop=1;jettySize=auto;html=1;exitX=1;exitY=0.5;exitDx=0;exitDy=0;entryX=0;entryY=0.5;entryDx=0;entryDy=0;" parent="9bjt-Q4PApvt6V4Nclcf-1" source="9bjt-Q4PApvt6V4Nclcf-3" target="9bjt-Q4PApvt6V4Nclcf-5" edge="1">
          <mxGeometry relative="1" as="geometry" />
        </mxCell>
        <mxCell id="9bjt-Q4PApvt6V4Nclcf-3" value="insertion_sort(A)&lt;br&gt;1. for j = 2 to A.length&lt;br&gt;2.&amp;nbsp; &amp;nbsp; key = A[j]&lt;br&gt;3.&amp;nbsp; &amp;nbsp; // Insert A[j] into the sorted sequence A[1...j-1]&lt;br&gt;4.&amp;nbsp; &amp;nbsp; i = j - 1&lt;br&gt;5.&amp;nbsp; &amp;nbsp; while i &amp;gt; 0 and A[i] &amp;gt; key&lt;br&gt;6.&amp;nbsp; &amp;nbsp; &amp;nbsp; &amp;nbsp; A[i + 1] = A[i]&lt;br&gt;7.&amp;nbsp; &amp;nbsp; &amp;nbsp; &amp;nbsp; i = i - 1&lt;br&gt;8.&amp;nbsp; &amp;nbsp; A[i + 1] = key" style="rounded=0;whiteSpace=wrap;html=1;align=left;" parent="9bjt-Q4PApvt6V4Nclcf-1" vertex="1">
          <mxGeometry x="360" y="95" width="280" height="150" as="geometry" />
        </mxCell>
        <mxCell id="9bjt-Q4PApvt6V4Nclcf-5" value="插入排序是当前迭代元素的左边有序，右边无序，将当前迭代元素插入到左边的过程&lt;br&gt;&lt;br&gt;5~7 是将大于当前迭代元素的元素右移，8 是将当前迭代元素插入到正确的位置" style="rounded=0;whiteSpace=wrap;html=1;" parent="9bjt-Q4PApvt6V4Nclcf-1" vertex="1">
          <mxGeometry x="720" y="100" width="260" height="140" as="geometry" />
        </mxCell>
        <mxCell id="9bjt-Q4PApvt6V4Nclcf-9" style="edgeStyle=orthogonalEdgeStyle;rounded=0;orthogonalLoop=1;jettySize=auto;html=1;exitX=1;exitY=0.5;exitDx=0;exitDy=0;entryX=0;entryY=0.5;entryDx=0;entryDy=0;" parent="9bjt-Q4PApvt6V4Nclcf-1" source="9bjt-Q4PApvt6V4Nclcf-7" target="9bjt-Q4PApvt6V4Nclcf-8" edge="1">
          <mxGeometry relative="1" as="geometry" />
        </mxCell>
        <mxCell id="9bjt-Q4PApvt6V4Nclcf-7" value="循环不变式" style="rounded=0;whiteSpace=wrap;html=1;" parent="9bjt-Q4PApvt6V4Nclcf-1" vertex="1">
          <mxGeometry x="160" y="350" width="120" height="60" as="geometry" />
        </mxCell>
        <mxCell id="9bjt-Q4PApvt6V4Nclcf-8" value="用于证明循环的正确性，必须证明的三条性质：&lt;br&gt;初始值：循环的第一次迭代之前为真&lt;br&gt;保持：循环的某次迭代之前为真，下次迭代之前仍为真&lt;br&gt;终止：终止循环时为真" style="rounded=0;whiteSpace=wrap;html=1;" parent="9bjt-Q4PApvt6V4Nclcf-1" vertex="1">
          <mxGeometry x="360" y="320" width="360" height="120" as="geometry" />
        </mxCell>
      </root>
    </mxGraphModel>
  </diagram>
</mxfile>
